# xmcd
#
# Track frame offsets:
#	150
#	12174
#	27514
#	45077
#	64866
#	79729
#	91190
#	111251
#	128448
#	141454
#	155937
#	174280
#	191984
#	208102
#	223618
#	237929
#
# Disc length: 3424 seconds
#
# Revision: 1
# Processed by: cddbd v1.5.1PL2 Copyright (c) Steve Scherf et al.
# Submitted via: audiograbber 1.83.01
#
DISCID=de0d5e10
DTITLE=Boss Hoss - Internashville Urban Hymns
DYEAR=2004
DGENRE=Country
TTITLE0=Yee Haw
TTITLE1=Hey Ya!
TTITLE2=Toxic
TTITLE3=Loser
TTITLE4=Sabotage
TTITLE5=Hot In Herre
TTITLE6=Seven Nation Army
TTITLE7=Drowned In Lake Daniels
TTITLE8=A Little Less Conversation
TTITLE9=Hey Joe
TTITLE10=Eyes Without A Face
TTITLE11=Unbelievable
TTITLE12=All The Things She Said
TTITLE13=Remedy
TTITLE14=Word Up
TTITLE15=Like Ice In The Sunshine
EXTD=
EXTT0=
EXTT1=
EXTT2=
EXTT3=
EXTT4=
EXTT5=
EXTT6=
EXTT7=
EXTT8=
EXTT9=
EXTT10=
EXTT11=
EXTT12=
EXTT13=
EXTT14=
EXTT15=
PLAYORDER=
